/* XPM */
static const char *const aboutApp_xpm[] = {
/* columns rows colors chars-per-pixel */
"16 16 136 2",
"   c black",
".  c #00004949B6B6",
"X  c #00005757ADAD",
"o  c #01015959AFAF",
"O  c #00005757B2B2",
"+  c #00005B5BB6B6",
"@  c #00005D5DB5B5",
"#  c #01015D5DB5B5",
"$  c #00005E5EBCBC",
"%  c #00005F5FBEBE",
"&  c #00006262BDBD",
"*  c #14146666B8B8",
"=  c #13136B6BBFBF",
"-  c #19196B6BBABA",
";  c #1B1B6B6BBABA",
":  c #00006767C5C5",
">  c #01016767C7C7",
",  c #05056868C4C4",
"<  c #00006969C8C8",
"1  c #00006C6CCDCD",
"2  c #00006D6DCFCF",
"3  c #00006E6ECFCF",
"4  c #00006F6FCFCF",
"5  c #01016E6ECFCF",
"6  c #06066E6ECBCB",
"7  c #00006D6DD0D0",
"8  c #00006E6ED0D0",
"9  c #00006F6FD2D2",
"0  c #00006F6FD3D3",
"q  c #02026F6FD1D1",
"w  c #00006D6DDBDB",
"e  c #00007070D3D3",
"r  c #01017070D2D2",
"t  c #00007171D4D4",
"y  c #00007272D6D6",
"u  c #00007373D7D7",
"i  c #05057373D6D6",
"p  c #00007373D9D9",
"a  c #00007474D8D8",
"s  c #00007474DADA",
"d  c #00007575DBDB",
"f  c #02027676DADA",
"g  c #00007676DCDC",
"h  c #00007777DDDD",
"j  c #01017777DCDC",
"k  c #00007777DEDE",
"l  c #06067777DADA",
"z  c #00007878DFDF",
"x  c #13136B6BC1C1",
"c  c #16167474CBCB",
"v  c #14147575CECE",
"b  c #16167676CFCF",
"n  c #16167777CFCF",
"m  c #16167F7FDBDB",
"M  c #1D1D7C7CD2D2",
"N  c #00007878E0E0",
"B  c #00007979E0E0",
"V  c #00007979E1E1",
"C  c #00007A7AE2E2",
"Z  c #00007B7BE4E4",
"A  c #00007B7BE5E5",
"S  c #00007C7CE4E4",
"D  c #00007C7CE5E5",
"F  c #00007C7CE6E6",
"G  c #00007D7DE6E6",
"H  c #00007D7DE7E7",
"J  c #00007E7EE8E8",
"K  c #00007F7FE9E9",
"L  c #02027F7FE8E8",
"P  c #24247373C0C0",
"I  c #24247B7BCBCB",
"U  c #25257A7ACACA",
"Y  c #25257B7BCBCB",
"T  c #28287D7DCCCC",
"R  c #00009292DBDB",
"E  c #1A1A8383DFDF",
"W  c #1D1D8181DADA",
"Q  c #1D1D8282DBDB",
"!  c #00008080EBEB",
"~  c #00008181EBEB",
"^  c #00008282E9E9",
"/  c #00008282EBEB",
"(  c #00008181ECEC",
")  c #00008282ECEC",
"_  c #00008282EEEE",
"`  c #02028282ECEC",
"'  c #04048383ECEC",
"]  c #00008686F2F2",
"[  c #14148787EAEA",
"{  c #34348282CCCC",
"}  c #32328484D2D2",
"|  c #32328787D5D5",
" . c #34348585D0D0",
".. c #35358787D2D2",
"X. c #35358787D3D3",
"o. c #34348B8BD9D9",
"O. c #35358C8CDADA",
"+. c #35358D8DDBDB",
"@. c #35358E8EDBDB",
"#. c #34348D8DDDDD",
"$. c #31318F8FE1E1",
"%. c #34349090E1E1",
"&. c #42428B8BCFCF",
"*. c #44448D8DD1D1",
"=. c #4C4C9191D3D3",
"-. c #4C4C9292D4D4",
";. c #4C4C9393D5D5",
":. c #4C4C9696DADA",
">. c #4C4C9797DBDB",
",. c #4C4C9898DCDC",
"<. c #5F5F9B9BD4D4",
"1. c #49499B9BE2E2",
"2. c #5F5FA0A0DCDC",
"3. c #62629999D0D0",
"4. c #62629C9CD5D5",
"5. c #64649F9FD6D6",
"6. c #6A6A9F9FD4D4",
"7. c #6464A0A0D7D7",
"8. c #6464A2A2DCDC",
"9. c #6464A3A3DCDC",
"0. c #6E6EA3A3D6D6",
"q. c #7575A6A6D6D6",
"w. c #7676A6A6D6D6",
"e. c #7878A9A9D9D9",
"r. c #7878ADADDEDE",
"t. c #7D7DACACD9D9",
"y. c #7C7CACACDBDB",
"u. c #7C7CAFAFDFDF",
"i. c #8787B3B3DEDE",
"p. c #8989B3B3DCDC",
"a. c #8888B4B4DEDE",
"s. c #A9A9C8C8E8E8",
"d. c #ACACCBCBE8E8",
"f. c #F4F4F8F8FCFC",
"g. c #F5F5F9F9FCFC",
"h. c #FFFFFFFFFFFF",
/* pixels */
"h.h.h.h.h.h.h.h.h.h.h.h.h.h.h.h.",
"h.h.h.h.. X X ; ; # # $ h.h.h.h.",
"h.h.h.O * 3.p.q.q.a.4.= $ h.h.h.",
"h.h.+ P e.t.6.f.g.0.u.r.I : h.h.",
"h.$ = <.5.7.t.h.h.i.9.9.2.v w h.",
"h.& { -.-.;.&.s.d.*.>.,.,.o.4 h.",
"h.,  . .X.} T U U | o.o.o.#.i h.",
"h.< 6 n M n h.h.h.n W W E l d h.",
"h.1 7 4 0 4 : h.h.3 d d j z C h.",
"h.0 0 y p p 4 h.h.4 C C C D C h.",
"h.p d j j j 0 h.h.y D D K K ~ h.",
"h.w j C C N 4 h.h.0 D ) ) ~ ] h.",
"h.h.A A D d h.h.h.h.j ) ) ) h.h.",
"h.h.h.~ ~ L E %.1.$.[ ) K h.h.h.",
"h.h.h.h.] ~ ) ) ) ) ) R h.h.h.h.",
"h.h.                          h."
};
