/* XPM */
static const char *const about_xpm[] = {
/* columns rows colors chars-per-pixel */
"16 16 77 1",
"  c #C4C4A0A00000",
". c #C4C4A0A00101",
"X c #C5C5A1A10101",
"o c #C5C5A1A10202",
"O c #C6C6A2A20202",
"+ c #C6C6A2A20303",
"@ c #C7C7A4A40303",
"# c #C7C7A4A40404",
"$ c #C7C7A4A40505",
"% c #C7C7A4A40606",
"& c #C7C7A4A40707",
"* c #C7C7A5A50707",
"= c #C8C8A5A50808",
"- c #C9C9A7A70B0B",
"; c #C9C9A8A80D0D",
": c #CACAA8A80C0C",
"> c #C9C9A8A81010",
", c #CCCCACAC1212",
"< c #CCCCACAC1414",
"1 c #CDCDAEAE1B1B",
"2 c #CFCFB1B11C1C",
"3 c #D0D0B1B11F1F",
"4 c #CFCFB0B02121",
"5 c #D2D2B5B52222",
"6 c #D3D3B6B62C2C",
"7 c #D2D2B6B62F2F",
"8 c #F6F6E1E13232",
"9 c #F6F6E2E23535",
"0 c #F5F5E0E03838",
"q c #F7F7E2E23A3A",
"w c #F8F8E3E33C3C",
"e c #F8F8E4E43E3E",
"r c #D9D9C0C04A4A",
"t c #E4E4CECE4C4C",
"y c #E4E4CECE4F4F",
"u c #E7E7D0D04141",
"i c #E7E7D2D24747",
"p c #EBEBD7D75555",
"a c #EBEBD7D75656",
"s c #ECECD8D85A5A",
"d c #E9E9D6D66868",
"f c #EAEAD8D86C6C",
"g c #F6F6E3E34949",
"h c #F8F8E4E44141",
"j c #F9F9E6E64444",
"k c #FBFBE7E74A4A",
"l c #F9F9E7E74D4D",
"z c #F7F7E7E75F5F",
"x c #F8F8E7E75A5A",
"c c #FBFBE9E95C5C",
"v c #F6F6E6E66464",
"b c #F6F6E6E66767",
"n c #F8F8E8E86464",
"m c #F8F8E8E86565",
"M c #F9F9E9E96B6B",
"N c #F9F9EBEB7373",
"B c #FAFAEBEB7171",
"V c #F8F8EAEA7B7B",
"C c #F9F9ECEC7F7F",
"Z c #FAFAECEC7C7C",
"A c #EEEEDFDF8383",
"S c #EEEEDFDF8585",
"D c #F7F7E9E98181",
"F c #F8F8EBEB8F8F",
"G c #F8F8ECEC8888",
"H c #F9F9EDED8989",
"J c #FAFAEDED8B8B",
"K c #F9F9EEEE9B9B",
"L c #FBFBF0F09797",
"P c #FCFCF2F2A6A6",
"I c #FCFCF3F3AAAA",
"U c #FDFDF6F6BCBC",
"Y c #FCFCF7F7CFCF",
"T c #FDFDF8F8D1D1",
"R c #FDFDF9F9DFDF",
"E c #FEFEFCFCEEEE",
"W c #FFFFFFFFFFFF",
/* pixels */
"WWWWWW   WWWWWWW",
"WWWWWW&r@WWWWWWW",
"WWWWW 4R1 WWWWWW",
"WWWWW@SEA@WWWWWW",
"WWWW &TZT+ WWWWW",
"WW @ fPjUd * WWW",
" *>tFLlkcIKy:* W",
" 7GCg9ejjexGD6  ",
" &2sVm0ehNGa2* W",
"WW &:ac8Ma-@ WWW",
"WWWW.=v0b@ WWWWW",
"WWWWW&inu*WWWWWW",
"WWWWW <B, WWWWWW",
"WWWWWW&5&WWWWWWW",
"WWWWWW   WWWWWWW",
"WWWWWWW WWWWWWWW"
};
