/* XPM */
static const char *const exit_xpm[] = {
/* columns rows colors chars-per-pixel */
"16 16 115 2",
"   c #0A0A16161C1C",
".  c #0F0F1A1A2020",
"X  c #090920202C2C",
"o  c #0A0A21212D2D",
"O  c #0B0B21212D2D",
"+  c #0C0C21212D2D",
"@  c #0C0C22222D2D",
"#  c #0D0D22222D2D",
"$  c #0E0E22222D2D",
"%  c #0E0E23232D2D",
"&  c #0F0F23232E2E",
"*  c #090926263535",
"=  c #09092B2B3C3C",
"-  c #101024242E2E",
";  c #131326263131",
":  c #14142D2D3B3B",
">  c #343434343434",
",  c #393939393939",
"<  c #3C3C3E3E3F3F",
"1  c #3E3E3E3E3E3E",
"2  c #0B0B36364D4D",
"3  c #161632324141",
"4  c #1A1A3D3D4F4F",
"5  c #1C1C3C3C4D4D",
"6  c #101045456060",
"7  c #36364E4E5959",
"8  c #37374E4E5858",
"9  c #3B3B4E4E5757",
"0  c #3C3C4E4E5757",
"q  c #3F3F4E4E5656",
"w  c #20204C4C6464",
"e  c #25255B5B7777",
"r  c #3C3C54546060",
"t  c #3B3B58586767",
"y  c #3C3C67677D7D",
"u  c #3D3D67677D7D",
"i  c #3F3F68687D7D",
"p  c #424242424242",
"a  c #434343434343",
"s  c #464646464646",
"d  c #484848484848",
"f  c #4A4A4A4A4A4A",
"g  c #4B4B4B4B4B4B",
"h  c #4C4C4C4C4C4C",
"j  c #4E4E4E4E4E4E",
"k  c #4F4F4F4F4F4F",
"l  c #414155555D5D",
"z  c #505050505050",
"x  c #44445A5A6565",
"c  c #404069697E7E",
"v  c #414169697E7E",
"b  c #42426A6A7E7E",
"n  c #2D2D6C6C8F8F",
"m  c #3C3C6F6F8989",
"M  c #3D3D6F6F8989",
"N  c #1C1C8686BFBF",
"B  c #1F1F8888C0C0",
"V  c #1818A1A1E8E8",
"C  c #1A1AA2A2E9E9",
"Z  c #1111A5A5F3F3",
"A  c #1414A6A6F3F3",
"S  c #1616A7A7F3F3",
"D  c #1B1BA9A9F4F4",
"F  c #1F1FABABF5F5",
"G  c #2727A7A7EBEB",
"H  c #2D2DAAAAECEC",
"J  c #2A2AB0B0F7F7",
"K  c #2D2DB1B1F7F7",
"L  c #2F2FB2B2F8F8",
"P  c #3333ADADEEEE",
"I  c #3A3AB0B0EFEF",
"U  c #3131B3B3F8F8",
"Y  c #3333B4B4F9F9",
"T  c #3636B5B5F9F9",
"R  c #3F3FB2B2F0F0",
"E  c #3838B6B6F9F9",
"W  c #3A3AB7B7FAFA",
"Q  c #3C3CB8B8FAFA",
"!  c #3E3EB9B9FBFB",
"~  c #3F3FB9B9FBFB",
"^  c #4141BABAFBFB",
"/  c #4343BBBBFBFB",
"(  c #4545BCBCFCFC",
")  c #E1E10A0A0A0A",
"_  c #E2E20B0B0B0B",
"`  c #E2E20C0C0C0C",
"'  c #E3E30D0D0D0D",
"]  c #E3E30E0E0E0E",
"[  c #E4E40E0E0E0E",
"{  c #E4E40F0F0F0F",
"}  c #E5E511111111",
"|  c #E5E512121212",
" . c #E6E613131313",
".. c #E6E614141414",
"X. c #E7E714141414",
"o. c #E7E715151515",
"O. c #E5E51A1A1A1A",
"+. c #E8E816161616",
"@. c #E8E817171717",
"#. c #E9E918181818",
"$. c #E9E919191919",
"%. c #EAEA1A1A1A1A",
"&. c #EAEA1B1B1B1B",
"*. c #EBEB1C1C1C1C",
"=. c #E8E820202020",
"-. c #EBEB23232323",
";. c #EDED25252525",
":. c #D0D0D5D5D8D8",
">. c #D1D1D6D6D9D9",
",. c #F8F8C5C5C5C5",
"<. c #F9F9C7C7C7C7",
"1. c #FAFAC5C5C5C5",
"2. c #FBFBC5C5C5C5",
"3. c #FAFAC8C8C8C8",
"4. c #FFFFFFFFFFFF",
/* pixels */
"4.4.4.4.4.4.4.4.4.4.4.4.4.4.4.4.",
"4.4.4.4.4.z > , 1 a d h g g k 4.",
"4.4.4.4.4.k ; n e 6 w : :   s 4.",
"4.4.4.4.4.z 5 ( / / ^ R Q - d 4.",
"4.4.4.4.4.q r I Q Q W E T % g 4.",
"4.4.4.4.4.9 >.b I E T Y Y % s 4.",
"7 7 7 7 7 7 4.>.b P Y K K # g 4.",
"7 4.4.4.4.4.4.2.>.b H K N # s 4.",
"7 4.#.$.$.*.*.;.1.>.i G N # d 4.",
"7 4. ...o.o.o.$.-.3.>.m F O d 4.",
"7 4.' ]  . . ...-.3.>.m D O d 4.",
"7 4._ _ ` ' ' O.1.:.y C S O d 4.",
"7 4.4.4.4.4.4.1.>.y V Z Z O s 4.",
"7 7 7 7 7 7 4.:.t 6 2 = *   d 4.",
"4.4.4.4.4.9 :.l < a s g g g k 4.",
"4.4.4.4.4.7 x 7 4.4.4.4.4.4.4.4."
};
